<svg width="60" height="30" viewBox="0 0 60 30" fill="none" xmlns="http://www.w3.org/2000/svg">
<rect x="1" y="1" width="58" height="28" rx="9" stroke="white" stroke-width="2"/>
<path d="M19.516 21.168C18.116 21.168 17.024 20.7807 16.24 20.006C15.4653 19.2313 15.078 18.1253 15.078 16.688V11.2H17.346V16.604C17.346 18.3587 18.074 19.236 19.53 19.236C20.2393 19.236 20.7807 19.026 21.154 18.606C21.5273 18.1767 21.714 17.5093 21.714 16.604V11.2H23.954V16.688C23.954 18.1253 23.562 19.2313 22.778 20.006C22.0033 20.7807 20.916 21.168 19.516 21.168ZM32.4441 18.9H27.8941L27.0261 21H24.7021L29.0701 11.2H31.3101L35.6921 21H33.3121L32.4441 18.9ZM31.7301 17.178L30.1761 13.426L28.6221 17.178H31.7301ZM40.9509 11.2C41.8189 11.2 42.5702 11.3447 43.2049 11.634C43.8489 11.9233 44.3435 12.334 44.6889 12.866C45.0342 13.398 45.2069 14.028 45.2069 14.756C45.2069 15.4747 45.0342 16.1047 44.6889 16.646C44.3435 17.178 43.8489 17.5887 43.2049 17.878C42.5702 18.158 41.8189 18.298 40.9509 18.298H38.9769V21H36.7089V11.2H40.9509ZM40.8249 16.45C41.5062 16.45 42.0242 16.3053 42.3789 16.016C42.7335 15.7173 42.9109 15.2973 42.9109 14.756C42.9109 14.2053 42.7335 13.7853 42.3789 13.496C42.0242 13.1973 41.5062 13.048 40.8249 13.048H38.9769V16.45H40.8249Z" fill="white"/>
</svg>
